<svg width="66" height="47" viewBox="0 0 66 47" fill="none" xmlns="http://www.w3.org/2000/svg">
<path d="M65.7289 1.61135C65.7805 1.91111 65.7614 2.21948 65.6733 2.51137L54.6732 38.5932C54.4663 39.2047 54.1716 39.7805 53.8027 40.3028C52.8195 41.6948 51.3027 42.7139 49.488 43.0263C48.1661 43.2538 46.8674 43.0741 45.7227 42.5794C45.2962 42.3962 44.8901 42.1669 44.5111 41.9022C43.9468 41.5027 43.4417 41.0137 43.0214 40.4546L38.7474 34.6414C38.1328 33.8047 36.8255 34.0286 36.5212 35.0222L34.3672 42.0885C34.1603 42.7001 33.8645 43.276 33.4967 43.7982C33.2293 44.1753 32.922 44.5262 32.5812 44.8415C31.6667 45.6907 30.504 46.2941 29.182 46.5216C27.3674 46.834 25.5971 46.3807 24.2051 45.3976C23.6397 44.9982 23.1345 44.5093 22.7154 43.9499L0.23478 13.3841C0.135376 13.2463 0.0575218 13.0894 0.0288558 12.9229L0.02846 12.9206C-0.153223 11.8651 0.5538 10.8612 1.6116 10.6791L9.2562 9.36324C10.5782 9.13569 11.8768 9.3154 13.0238 9.80974C13.4503 9.99293 13.8552 10.2224 14.2335 10.4896C14.7988 10.8878 15.3037 11.3756 15.7228 11.9349L24.0247 23.2241C24.6419 24.0615 25.95 23.8363 26.2505 22.8409L27.3614 19.1612L20.6842 10.0828C19.8805 8.9866 20.5072 7.42657 21.8475 7.19586L29.5633 5.86771C30.1824 5.76115 30.7967 5.74409 31.3929 5.80702C32.542 5.92851 33.6225 6.34561 34.5405 6.99291C35.1057 7.3911 35.6095 7.8791 36.0298 8.43823L44.3316 19.7274C44.9465 20.5652 46.2558 20.3399 46.5575 19.3443L47.4739 16.3141L50.6082 5.92998C50.956 4.81765 51.591 3.81435 52.4413 3.02468C53.3571 2.17527 54.5209 1.57169 55.8428 1.34414L63.4874 0.0282469C64.5441 -0.153638 65.5472 0.555867 65.7289 1.61135Z" fill="#FAFAFA" fill-opacity="0.1"/>
</svg>
