<svg width="16" height="16" viewBox="0 0 16 16" fill="none" xmlns="http://www.w3.org/2000/svg">
<path d="M8.65487 2.31846C8.42065 2.14343 8.30354 2.05591 8.17423 2.02226C8.06013 1.99258 7.93987 1.99258 7.82577 2.02226C7.69646 2.05591 7.57935 2.14343 7.34513 2.31846L2.82359 5.69758C2.52135 5.92346 2.37022 6.0364 2.26135 6.17784C2.16491 6.30313 2.09307 6.44428 2.04935 6.59434C2 6.76375 2 6.94771 2 7.31563V11.9502C2 12.6677 2 13.0264 2.14532 13.3005C2.27316 13.5415 2.47713 13.7375 2.72801 13.8604C3.01323 14 3.3866 14 4.13333 14H5.46667C5.65335 14 5.74669 14 5.818 13.9651C5.88072 13.9344 5.93171 13.8854 5.96367 13.8251C6 13.7566 6 13.6669 6 13.4875V9.25974C6 8.90098 6 8.7216 6.07266 8.58458C6.13658 8.46404 6.23857 8.36605 6.36401 8.30463C6.50661 8.23482 6.6933 8.23482 7.06667 8.23482H8.93333C9.3067 8.23482 9.49339 8.23482 9.63599 8.30463C9.76144 8.36605 9.86342 8.46404 9.92734 8.58458C10 8.7216 10 8.90098 10 9.25974V13.4875C10 13.6669 10 13.7566 10.0363 13.8251C10.0683 13.8854 10.1193 13.9344 10.182 13.9651C10.2533 14 10.3466 14 10.5333 14H11.8667C12.6134 14 12.9868 14 13.272 13.8604C13.5229 13.7375 13.7268 13.5415 13.8547 13.3005C14 13.0264 14 12.6677 14 11.9502V7.31563C14 6.94771 14 6.76375 13.9506 6.59434C13.9069 6.44428 13.8351 6.30313 13.7386 6.17784C13.6298 6.0364 13.4787 5.92346 13.1764 5.69758L8.65487 2.31846Z" stroke="#FAFAFA" stroke-linecap="round" stroke-linejoin="round"/>
</svg>
